<mxfile host="Electron" modified="2024-07-25T16:07:55.567Z" agent="Mozilla/5.0 (X11; Linux x86_64) AppleWebKit/537.36 (KHTML, like Gecko) draw.io/24.5.3 Chrome/124.0.6367.207 Electron/30.0.6 Safari/537.36" etag="dRhWY-OwHlIdfIOl66Vz" version="24.5.3" type="device">
  <diagram name="Page-1" id="D_lEAe5iYJdpouglTqHc">
    <mxGraphModel dx="989" dy="683" grid="1" gridSize="10" guides="1" tooltips="1" connect="1" arrows="1" fold="1" page="1" pageScale="1" pageWidth="827" pageHeight="1169" math="1" shadow="0">
      <root>
        <mxCell id="0" />
        <mxCell id="1" parent="0" />
        <mxCell id="x5x_2e9SC5uEc3kI843S-6" style="edgeStyle=orthogonalEdgeStyle;rounded=0;orthogonalLoop=1;jettySize=auto;html=1;exitX=1;exitY=0.5;exitDx=0;exitDy=0;entryX=0;entryY=0.5;entryDx=0;entryDy=0;strokeWidth=2;endArrow=open;endFill=0;verticalAlign=top;horizontal=0;labelPosition=center;verticalLabelPosition=bottom;align=center;" edge="1" parent="1" source="x5x_2e9SC5uEc3kI843S-1" target="x5x_2e9SC5uEc3kI843S-2">
          <mxGeometry relative="1" as="geometry" />
        </mxCell>
        <mxCell id="x5x_2e9SC5uEc3kI843S-7" value="&lt;font style=&quot;font-size: 18px;&quot;&gt;\(\boldsymbol{W}^{(y)}_0&amp;nbsp; \)&lt;/font&gt;" style="edgeLabel;html=1;align=center;verticalAlign=middle;resizable=0;points=[];" vertex="1" connectable="0" parent="x5x_2e9SC5uEc3kI843S-6">
          <mxGeometry x="-0.0286" relative="1" as="geometry">
            <mxPoint y="-21" as="offset" />
          </mxGeometry>
        </mxCell>
        <mxCell id="x5x_2e9SC5uEc3kI843S-14" style="edgeStyle=elbowEdgeStyle;rounded=0;orthogonalLoop=1;jettySize=auto;html=1;elbow=vertical;strokeWidth=2;entryX=0.5;entryY=1;entryDx=0;entryDy=0;entryPerimeter=0;endArrow=open;endFill=0;" edge="1" parent="1" source="x5x_2e9SC5uEc3kI843S-1" target="x5x_2e9SC5uEc3kI843S-24">
          <mxGeometry relative="1" as="geometry">
            <mxPoint x="380" y="160" as="targetPoint" />
            <Array as="points">
              <mxPoint x="240" y="240" />
            </Array>
          </mxGeometry>
        </mxCell>
        <mxCell id="x5x_2e9SC5uEc3kI843S-19" value="&lt;span style=&quot;font-size: 18px;&quot;&gt;\(\boldsymbol{W}^{(y)}_1&amp;nbsp; \)&lt;/span&gt;" style="edgeLabel;html=1;align=center;verticalAlign=bottom;resizable=0;points=[];" vertex="1" connectable="0" parent="x5x_2e9SC5uEc3kI843S-14">
          <mxGeometry x="0.0012" y="-2" relative="1" as="geometry">
            <mxPoint x="3" y="-6" as="offset" />
          </mxGeometry>
        </mxCell>
        <mxCell id="x5x_2e9SC5uEc3kI843S-15" style="edgeStyle=elbowEdgeStyle;rounded=0;orthogonalLoop=1;jettySize=auto;html=1;entryX=0.5;entryY=1;entryDx=0;entryDy=0;elbow=vertical;exitX=0.5;exitY=1;exitDx=0;exitDy=0;strokeWidth=2;entryPerimeter=0;endArrow=open;endFill=0;verticalAlign=bottom;labelPosition=center;verticalLabelPosition=top;align=center;" edge="1" parent="1" source="x5x_2e9SC5uEc3kI843S-1" target="x5x_2e9SC5uEc3kI843S-26">
          <mxGeometry relative="1" as="geometry">
            <mxPoint x="130" y="200.1071428571429" as="sourcePoint" />
            <mxPoint x="510" y="200" as="targetPoint" />
            <Array as="points">
              <mxPoint x="310" y="270" />
            </Array>
          </mxGeometry>
        </mxCell>
        <mxCell id="x5x_2e9SC5uEc3kI843S-20" value="&lt;span style=&quot;font-size: 18px;&quot;&gt;\(\boldsymbol{W}^{(y)}_2&amp;nbsp; \)&lt;/span&gt;" style="edgeLabel;html=1;align=center;verticalAlign=middle;resizable=0;points=[];" vertex="1" connectable="0" parent="x5x_2e9SC5uEc3kI843S-15">
          <mxGeometry x="0.1601" y="-1" relative="1" as="geometry">
            <mxPoint x="5" y="-22" as="offset" />
          </mxGeometry>
        </mxCell>
        <mxCell id="x5x_2e9SC5uEc3kI843S-21" style="edgeStyle=elbowEdgeStyle;rounded=0;orthogonalLoop=1;jettySize=auto;html=1;elbow=vertical;exitX=0.5;exitY=1;exitDx=0;exitDy=0;strokeWidth=2;endArrow=open;endFill=0;entryX=0.5;entryY=1;entryDx=0;entryDy=0;entryPerimeter=0;" edge="1" parent="1" source="x5x_2e9SC5uEc3kI843S-1" target="x5x_2e9SC5uEc3kI843S-29">
          <mxGeometry relative="1" as="geometry">
            <mxPoint x="80" y="220" as="sourcePoint" />
            <mxPoint x="720" y="160" as="targetPoint" />
            <Array as="points">
              <mxPoint x="420" y="300" />
            </Array>
          </mxGeometry>
        </mxCell>
        <mxCell id="x5x_2e9SC5uEc3kI843S-22" value="&lt;font style=&quot;font-size: 18px;&quot;&gt;\(\boldsymbol{W}^{(y)}_{k-1}&amp;nbsp; \)&lt;/font&gt;" style="edgeLabel;html=1;align=center;verticalAlign=middle;resizable=0;points=[];" vertex="1" connectable="0" parent="x5x_2e9SC5uEc3kI843S-21">
          <mxGeometry x="0.1243" relative="1" as="geometry">
            <mxPoint x="55" y="-22" as="offset" />
          </mxGeometry>
        </mxCell>
        <mxCell id="x5x_2e9SC5uEc3kI843S-1" value="&lt;font style=&quot;font-size: 27px;&quot;&gt;\(\boldsymbol{y} \)&lt;/font&gt;" style="rounded=0;whiteSpace=wrap;html=1;" vertex="1" parent="1">
          <mxGeometry x="100" y="69" width="30" height="150" as="geometry" />
        </mxCell>
        <mxCell id="x5x_2e9SC5uEc3kI843S-2" value="" style="rounded=0;whiteSpace=wrap;html=1;strokeColor=#82b366;fillColor=#d5e8d4;" vertex="1" parent="1">
          <mxGeometry x="240" y="97.5" width="20" height="92.5" as="geometry" />
        </mxCell>
        <mxCell id="x5x_2e9SC5uEc3kI843S-3" value="" style="rounded=0;whiteSpace=wrap;html=1;strokeColor=#82b366;fillColor=#d5e8d4;" vertex="1" parent="1">
          <mxGeometry x="394" y="96.25" width="20" height="92.5" as="geometry" />
        </mxCell>
        <mxCell id="x5x_2e9SC5uEc3kI843S-4" value="" style="rounded=0;whiteSpace=wrap;html=1;strokeColor=#82b366;fillColor=#d5e8d4;" vertex="1" parent="1">
          <mxGeometry x="546" y="97.75" width="20" height="90" as="geometry" />
        </mxCell>
        <mxCell id="x5x_2e9SC5uEc3kI843S-5" value="&lt;font style=&quot;font-size: 17px;&quot;&gt;\(E(\boldsymbol{y})\)&lt;/font&gt;" style="rounded=0;whiteSpace=wrap;html=1;fillColor=#d5e8d4;strokeColor=#82b366;" vertex="1" parent="1">
          <mxGeometry x="750" y="128.75" width="50" height="31.25" as="geometry" />
        </mxCell>
        <mxCell id="x5x_2e9SC5uEc3kI843S-10" style="edgeStyle=orthogonalEdgeStyle;rounded=0;orthogonalLoop=1;jettySize=auto;html=1;exitX=1;exitY=0.5;exitDx=0;exitDy=0;strokeWidth=2;endArrow=open;endFill=0;" edge="1" parent="1">
          <mxGeometry relative="1" as="geometry">
            <mxPoint x="260" y="143.46" as="sourcePoint" />
            <mxPoint x="350" y="143" as="targetPoint" />
          </mxGeometry>
        </mxCell>
        <mxCell id="x5x_2e9SC5uEc3kI843S-11" value="&lt;font color=&quot;#990000&quot; style=&quot;font-size: 18px;&quot;&gt;\(\boldsymbol{W}^{(E)}_1&amp;nbsp; \)&lt;/font&gt;" style="edgeLabel;html=1;align=center;verticalAlign=middle;resizable=0;points=[];" vertex="1" connectable="0" parent="x5x_2e9SC5uEc3kI843S-10">
          <mxGeometry x="-0.0286" relative="1" as="geometry">
            <mxPoint y="-21" as="offset" />
          </mxGeometry>
        </mxCell>
        <mxCell id="x5x_2e9SC5uEc3kI843S-12" style="edgeStyle=orthogonalEdgeStyle;rounded=0;orthogonalLoop=1;jettySize=auto;html=1;exitX=1;exitY=0.5;exitDx=0;exitDy=0;entryX=0;entryY=0.5;entryDx=0;entryDy=0;strokeWidth=2;entryPerimeter=0;endArrow=open;endFill=0;" edge="1" parent="1" source="x5x_2e9SC5uEc3kI843S-3" target="x5x_2e9SC5uEc3kI843S-26">
          <mxGeometry relative="1" as="geometry">
            <mxPoint x="390" y="144.71" as="sourcePoint" />
            <mxPoint x="500" y="144.71" as="targetPoint" />
          </mxGeometry>
        </mxCell>
        <mxCell id="x5x_2e9SC5uEc3kI843S-13" value="&lt;font color=&quot;#990000&quot; style=&quot;font-size: 18px;&quot;&gt;\(\boldsymbol{W}^{(E)}_2&amp;nbsp; \)&lt;/font&gt;" style="edgeLabel;html=1;align=center;verticalAlign=middle;resizable=0;points=[];" vertex="1" connectable="0" parent="x5x_2e9SC5uEc3kI843S-12">
          <mxGeometry x="-0.0286" relative="1" as="geometry">
            <mxPoint y="-20" as="offset" />
          </mxGeometry>
        </mxCell>
        <mxCell id="x5x_2e9SC5uEc3kI843S-16" style="rounded=0;orthogonalLoop=1;jettySize=auto;html=1;strokeWidth=2;endArrow=open;endFill=0;entryX=0;entryY=0.5;entryDx=0;entryDy=0;entryPerimeter=0;exitX=1;exitY=0.75;exitDx=0;exitDy=0;" edge="1" parent="1" source="x5x_2e9SC5uEc3kI843S-18" target="x5x_2e9SC5uEc3kI843S-29">
          <mxGeometry relative="1" as="geometry">
            <mxPoint x="620" y="143" as="sourcePoint" />
            <mxPoint x="700" y="145" as="targetPoint" />
          </mxGeometry>
        </mxCell>
        <mxCell id="x5x_2e9SC5uEc3kI843S-17" value="&lt;font color=&quot;#990000&quot; style=&quot;font-size: 18px;&quot;&gt;\(\boldsymbol{W}^{(E)}_{k-1}&amp;nbsp; \)&lt;/font&gt;" style="edgeLabel;html=1;align=center;verticalAlign=middle;resizable=0;points=[];" vertex="1" connectable="0" parent="x5x_2e9SC5uEc3kI843S-16">
          <mxGeometry x="-0.0286" relative="1" as="geometry">
            <mxPoint y="-20" as="offset" />
          </mxGeometry>
        </mxCell>
        <mxCell id="x5x_2e9SC5uEc3kI843S-18" value="\(\ldots\)" style="text;html=1;align=center;verticalAlign=middle;whiteSpace=wrap;rounded=0;fontSize=18;" vertex="1" parent="1">
          <mxGeometry x="560" y="128.75" width="60" height="20" as="geometry" />
        </mxCell>
        <mxCell id="x5x_2e9SC5uEc3kI843S-25" style="edgeStyle=orthogonalEdgeStyle;rounded=0;orthogonalLoop=1;jettySize=auto;html=1;entryX=0;entryY=0.5;entryDx=0;entryDy=0;strokeWidth=2;endArrow=open;endFill=0;" edge="1" parent="1" source="x5x_2e9SC5uEc3kI843S-24" target="x5x_2e9SC5uEc3kI843S-3">
          <mxGeometry relative="1" as="geometry" />
        </mxCell>
        <mxCell id="x5x_2e9SC5uEc3kI843S-24" value="" style="verticalLabelPosition=bottom;shadow=0;dashed=0;align=center;html=1;verticalAlign=top;shape=mxgraph.electrical.abstract.summation_point;" vertex="1" parent="1">
          <mxGeometry x="350" y="132.5" width="20" height="20" as="geometry" />
        </mxCell>
        <mxCell id="x5x_2e9SC5uEc3kI843S-30" style="rounded=0;orthogonalLoop=1;jettySize=auto;html=1;entryX=0;entryY=0.5;entryDx=0;entryDy=0;strokeColor=default;strokeWidth=2;align=center;verticalAlign=middle;fontFamily=Helvetica;fontSize=11;fontColor=default;labelBackgroundColor=default;endArrow=open;endFill=0;" edge="1" parent="1" source="x5x_2e9SC5uEc3kI843S-26" target="x5x_2e9SC5uEc3kI843S-4">
          <mxGeometry relative="1" as="geometry" />
        </mxCell>
        <mxCell id="x5x_2e9SC5uEc3kI843S-26" value="" style="verticalLabelPosition=bottom;shadow=0;dashed=0;align=center;html=1;verticalAlign=top;shape=mxgraph.electrical.abstract.summation_point;" vertex="1" parent="1">
          <mxGeometry x="500" y="132.75" width="20" height="20" as="geometry" />
        </mxCell>
        <mxCell id="x5x_2e9SC5uEc3kI843S-31" value="" style="rounded=0;orthogonalLoop=1;jettySize=auto;html=1;endArrow=open;endFill=0;strokeWidth=2;" edge="1" parent="1" source="x5x_2e9SC5uEc3kI843S-29" target="x5x_2e9SC5uEc3kI843S-5">
          <mxGeometry relative="1" as="geometry" />
        </mxCell>
        <mxCell id="x5x_2e9SC5uEc3kI843S-29" value="" style="verticalLabelPosition=bottom;shadow=0;dashed=0;align=center;html=1;verticalAlign=top;shape=mxgraph.electrical.abstract.summation_point;" vertex="1" parent="1">
          <mxGeometry x="710" y="133.5" width="20" height="20" as="geometry" />
        </mxCell>
      </root>
    </mxGraphModel>
  </diagram>
</mxfile>
